<svg xmlns="http://www.w3.org/2000/svg" version="1.1" xmlns:xlink="http://www.w3.org/1999/xlink" width="512" height="512"><svg xmlns="http://www.w3.org/2000/svg" xmlns:xlink="http://www.w3.org/1999/xlink" version="1.1" viewBox="0 0 512 512" style="enable-background:new 0 0 512 512;" xml:space="preserve"><g id="SvgjsG1040"><g><path style="fill:#FF5859;" d="M403.93,409.96c-9.949,5.399-22.259,3.571-30.174-4.491l-43.904-44.442    c-4.182-4.182-4.14-11.044,0.093-15.225l20.76-20.558c4.232-4.181,11.044-4.14,15.225,0.093l43.954,44.442    C421.782,381.822,418.805,401.887,403.93,409.96z"></path><g><linearGradient id="SvgjsLinearGradient1039" gradientUnits="userSpaceOnUse" x1="282.3356" y1="-163.9059" x2="229.2504" y2="823.4789"><stop offset="0" style="stop-color:#EAE9FE"></stop><stop offset="0.4236" style="stop-color:#EEEEFE"></stop><stop offset="0.8967" style="stop-color:#FBFBFF"></stop><stop offset="1" style="stop-color:#FFFFFF"></stop></linearGradient><path style="fill:url(#SVGID_1_);" d="M449.506,263.524c-8.638-6.722-19.071-12.513-23.089-22.694     c-5.464-13.845,3.27-28.704,8.42-42.669c15.726-42.64-4.457-93.136-40.669-120.598c-69.082-52.39-203.931-34.026-222.774,38.385     c-7.971,30.632,6.31,65.58-8.302,93.657c-18.437,35.427-67.345,37.817-98.845,53.57c-39.025,19.517-46.833,62.014-18.845,94.368     c10.278,11.881,23.429,20.066,32.854,33.047c13.639,18.783,21.288,39.553,39.536,55.046     c25.696,21.817,68.658,27.226,91.407,2.351c12.81-14.007,16.978-34.645,30.961-47.482c18.406-16.898,47.498-14.625,70.92-5.923     c23.422,8.702,45.145,22.753,69.815,26.712c38.573,6.191,79.932-16.442,95.512-52.268S480.339,287.516,449.506,263.524z"></path><rect x="312.98" y="296.358" transform="matrix(0.7071 -0.7071 0.7071 0.7071 -132.1383 325.3703)" style="fill:#EDEDED;" width="27.416" height="51.665"></rect><path style="fill:#5EDB6B;" d="M125.343,444.973c-8.045,0-14.568-6.523-14.568-14.568c0-55.98,71.185-98.184,74.215-99.952     c15.365-9.553,56.09-42.034,56.09-74.824c0-32.388-39.807-64.498-55.873-74.642c-0.071-0.039-0.142-0.078-0.21-0.121     c-3.059-1.771-74.891-44.026-74.891-100.105c0-8.045,6.523-14.568,14.568-14.568s14.568,6.523,14.568,14.568     c0,32.409,42.649,64.481,59.814,74.578c0.32,0.164,0.63,0.338,0.935,0.526c2.867,1.771,70.225,44.022,70.225,99.764     c0,55.777-67.358,98.028-70.225,99.799c-16.927,9.938-60.081,42.404-60.081,74.977     C139.912,438.45,133.389,444.973,125.343,444.973z"></path><path style="fill:#F9BB40;" d="M248.364,444.973c-8.045,0-14.568-6.523-14.568-14.568c0-32.729-43.122-65.085-59.736-74.792     c-3.173-1.956-70.57-44.203-70.57-99.984c0-53.23,61.454-94.155,69.496-99.28c0.349-0.245,0.711-0.48,1.088-0.697     c16.784-9.77,60.39-42.29,60.39-74.891c0-8.045,6.523-14.568,14.568-14.568c8.045,0,14.568,6.523,14.568,14.568     c0,53.689-65.875,94.709-74.173,99.664c-0.121,0.078-0.245,0.157-0.366,0.231c-15.685,9.742-56.435,42.215-56.435,74.973     c0,32.786,40.75,65.267,56.449,75.016c2.71,1.579,73.856,43.784,73.856,99.76C262.933,438.45,256.41,444.973,248.364,444.973z"></path><path style="fill:#EDEDED;" d="M209.233,107.276h-44.756c-3.595,0-6.508-2.916-6.508-6.511s2.913-6.511,6.508-6.511h44.756     c3.595,0,6.508,2.916,6.508,6.511S212.828,107.276,209.233,107.276z"></path><path style="fill:#EDEDED;" d="M209.233,417.165h-44.756c-3.595,0-6.508-2.916-6.508-6.511s2.913-6.511,6.508-6.511h44.756     c3.595,0,6.508,2.916,6.508,6.511S212.828,417.165,209.233,417.165z"></path><path style="fill:#EDEDED;" d="M209.233,226.476h-44.756c-3.595,0-6.508-2.916-6.508-6.511c0-3.595,2.913-6.511,6.508-6.511     h44.756c3.595,0,6.508,2.916,6.508,6.511C215.741,223.56,212.828,226.476,209.233,226.476z"></path><path style="fill:#EDEDED;" d="M220.376,262.346h-67.042c-3.595,0-6.508-2.916-6.508-6.511c0-3.595,2.913-6.511,6.508-6.511     h67.042c3.595,0,6.508,2.916,6.508,6.511C226.884,259.43,223.971,262.346,220.376,262.346z"></path><path style="fill:#EDEDED;" d="M209.233,297.965h-44.756c-3.595,0-6.508-2.916-6.508-6.511s2.913-6.511,6.508-6.511h44.756     c3.595,0,6.508,2.916,6.508,6.511S212.828,297.965,209.233,297.965z"></path><path style="fill:#2769FD;" d="M322.744,191.141c-35.109-35.109-92.004-35.058-127.112,0.05     c-35.058,35.058-35.109,91.953,0,127.062c31.753,31.753,81.536,34.758,116.644,8.915c3.656-2.655,7.112-5.609,10.417-8.915     c3.305-3.305,6.311-6.811,9.015-10.467C357.502,272.627,354.496,222.894,322.744,191.141z M211.988,301.896     c-26.049-26.098-26.049-68.349,0-94.35c26.098-26.098,68.349-26.098,94.398-0.049c26.049,26.049,26.049,68.301-0.049,94.398     C280.338,327.946,238.038,327.946,211.988,301.896z"></path><path style="fill:#332E8E;" d="M99.701,255.629c0,40.816,34.455,74.432,55.875,91.394c-21.809,18.384-48.59,48.125-48.59,83.381     c0,10.123,8.235,18.358,18.357,18.358c10.124,0,18.359-8.235,18.359-18.358c0-23.448,24.355-47.237,43.158-61.475     c18.462,14.064,43.145,38.102,43.145,61.475c0,10.123,8.235,18.358,18.359,18.358c10.122,0,18.357-8.235,18.357-18.358     c0-35.36-26.783-65.086-48.498-83.388c2.053-1.626,4.238-3.426,6.495-5.357c28.245,11.056,61.112,8.213,87.134-9.559     l13.459,13.459c-3.702,5.694-3.013,13.272,1.845,18.132l43.897,44.432c9.055,9.225,23.317,11.334,34.685,5.167     c17.1-9.283,20.526-32.323,6.838-46.176l-43.951-44.44c-4.982-5.042-12.763-5.727-18.516-1.807l-13.494-13.494     c25.001-36.72,20.441-87.278-11.194-118.911c-28.136-28.138-69.009-34.14-102.337-20.208c-1.667-1.398-3.288-2.723-4.834-3.948     c22.001-18.42,49.139-48.279,49.139-83.546c0-10.122-8.235-18.357-18.357-18.357s-18.357,8.235-18.357,18.357     c0,23.385-25.199,47.608-43.888,61.709c-18.784-14.074-43.755-38.096-43.755-61.709c0-10.122-8.235-18.357-18.359-18.357     c-10.122,0-18.357,8.235-18.357,18.357c0,35.381,27.138,65.214,49.131,83.593C134.24,181.187,99.701,214.855,99.701,255.629z      M136.123,430.404c0,5.944-4.835,10.779-10.781,10.779c-5.943,0-10.778-4.835-10.778-10.779c0-33.14,26.226-61.406,47.14-78.69     c10.826,7.977,10.132,6.534,18.847,12.61C162.233,378.479,136.123,403.389,136.123,430.404z M212.224,342.128     c-8.039-6.317-14.829-10.792-18.44-13.054c1.407-1.013,2.891-2.122,4.434-3.312c5.825,4.985,12.158,9.153,18.842,12.487     C215.385,339.629,213.756,340.939,212.224,342.128z M186.859,186.635c1.45,1.004,3.01,2.124,4.673,3.371     c-5.775,6.032-10.587,12.647-14.433,19.66h-12.623c-5.679,0-10.297,4.621-10.297,10.3c0,5.679,4.618,10.3,10.297,10.3h4.348     c-1.35,5.02-2.298,10.125-2.801,15.27h-12.69c-5.676,0-10.295,4.621-10.295,10.301c0,5.679,4.618,10.3,10.295,10.3h12.957     c0.617,5.065,1.625,10.091,3.067,15.019h-4.88c-5.679,0-10.297,4.621-10.297,10.301c0,2.513,0.94,4.788,2.44,6.578     c-11.122-12.568-20.202-27.51-20.202-42.404C136.417,227.14,169.671,198.436,186.859,186.635z M174.24,294.176h-9.764     c-1.5,0-2.719-1.221-2.719-2.721c0-1.501,1.219-2.722,2.719-2.722h7.473C172.66,290.564,173.409,292.384,174.24,294.176z      M165.662,258.557h-12.329c-1.497,0-2.716-1.221-2.716-2.721c0-1.501,1.219-2.722,2.716-2.722h12.276     C165.578,254.928,165.588,256.743,165.662,258.557z M171.205,222.686h-6.729c-1.5,0-2.719-1.221-2.719-2.721     s1.219-2.721,2.719-2.721h8.905C172.599,219.041,171.869,220.853,171.205,222.686z M164.476,301.755H178.2     c3.889,6.699,8.677,13.013,14.365,18.769c-2.062,1.572-3.971,2.955-5.691,4.14c-8.019-5.506-19.501-14.672-29.5-25.784     C159.224,300.651,161.719,301.755,164.476,301.755z M332.006,313.479l12.536,12.536l-14.097,13.961l-12.438-12.438     c2.542-2.044,4.981-4.221,7.366-6.606C327.713,318.593,329.901,316.071,332.006,313.479z M363.236,328.002l43.951,44.44     c10.128,10.25,7.608,27.311-5.065,34.188c-8.42,4.574-18.968,3-25.669-3.824l-43.922-44.457     c-2.695-2.695-2.667-7.141,0.081-9.854l20.757-20.556C356.087,325.253,360.499,325.231,363.236,328.002z M320.064,193.82     c29.779,29.779,33.472,77.809,8.597,111.711c-2.63,3.556-5.538,6.935-8.647,10.042c-3.177,3.177-6.439,5.968-9.986,8.543     c-33.879,24.938-81.908,21.266-111.719-8.543c-33.553-33.554-33.553-88.149,0-121.704     C231.924,160.262,286.401,160.154,320.064,193.82z M215.56,171.811c-6.6,3.485-12.802,7.788-18.493,12.846     c-1.123-0.846-2.232-1.675-3.308-2.445c3.73-2.339,10.492-6.793,18.478-13.036C213.307,170.007,214.418,170.888,215.56,171.811z      M113.896,80.76c0-5.943,4.835-10.778,10.778-10.778c5.945,0,10.781,4.835,10.781,10.778c0,25.369,24.006,50.437,44.864,66.384     c-8.57,5.91-8.326,4.816-18.747,12.511C140.467,142.359,113.896,113.993,113.896,80.76z M175.173,159.445     c0.252-0.179,0.516-0.35,0.809-0.518c17.32-10.082,62.273-43.78,62.273-78.167c0-5.943,4.835-10.778,10.778-10.778     c5.943,0,10.778,4.835,10.778,10.778c0,39.81-38.82,75.717-72.748,96.676c-16.196,10.059-58.225,43.714-58.225,78.193     c0,34.514,42.039,68.177,58.331,78.289c2.938,1.713,71.973,42.567,71.973,96.486c0,5.944-4.835,10.779-10.778,10.779     c-5.945,0-10.781-4.835-10.781-10.779c0-34.511-44.477-68.051-61.536-78.016c-2.807-1.732-68.769-43.024-68.769-96.759     C107.28,204.2,168.09,163.963,175.173,159.445z"></path><path style="fill:#332E8E;" d="M209.234,90.466h-44.758c-5.679,0-10.297,4.621-10.297,10.3s4.618,10.3,10.297,10.3h44.758     c5.679,0,10.297-4.621,10.297-10.3S214.913,90.466,209.234,90.466z M209.234,103.487h-44.758c-1.5,0-2.719-1.221-2.719-2.721     s1.219-2.721,2.719-2.721h44.758c1.5,0,2.719,1.221,2.719,2.721S210.734,103.487,209.234,103.487z"></path><path style="fill:#332E8E;" d="M164.476,400.354c-5.679,0-10.297,4.621-10.297,10.301c0,5.679,4.618,10.3,10.297,10.3h44.758     c5.679,0,10.297-4.621,10.297-10.3c0-5.68-4.618-10.301-10.297-10.301H164.476z M211.953,410.655c0,1.5-1.219,2.721-2.719,2.721     h-44.758c-1.5,0-2.719-1.221-2.719-2.721c0-1.501,1.219-2.722,2.719-2.722h44.758     C210.734,407.932,211.953,409.154,211.953,410.655z"></path><path style="fill:#332E8E;" d="M209.308,304.573c0,0.001,0.002,0.002,0.002,0.002c27.525,27.525,72.179,27.576,99.707,0     c27.516-27.516,27.539-72.267,0.049-99.756c-44.204-44.202-120.405-12.652-120.405,49.866     C188.662,273.519,195.994,291.236,209.308,304.573z M196.24,254.685c0-0.526,0.025-1.048,0.038-1.571h24.098     c1.5,0,2.719,1.221,2.719,2.722c0,1.5-1.219,2.721-2.719,2.721h-24.007C196.293,257.272,196.24,255.983,196.24,254.685z      M220.377,266.135c5.679,0,10.297-4.621,10.297-10.3c0-5.68-4.618-10.301-10.297-10.301h-23.476     c0.766-5.287,2.197-10.408,4.246-15.27h8.087c8.675,0,13.484-10.069,7.902-16.822c11.079,12.56,20.154,27.455,20.154,42.186     c0,14.319-8.646,28.861-19.312,41.216c0.973-1.57,1.552-3.409,1.552-5.39c0-5.68-4.618-10.301-10.297-10.301h-7.189     c-2.21-4.769-3.804-9.808-4.756-15.019H220.377z M206.227,288.733h3.007c1.5,0,2.719,1.221,2.719,2.722     c0,1.218-0.819,2.215-1.924,2.56C208.664,292.313,207.398,290.55,206.227,288.733z M215.241,299.762     c0.145-0.105,0.297-0.201,0.436-0.313c-0.119,0.131-0.24,0.257-0.358,0.386C215.293,299.81,215.267,299.786,215.241,299.762z      M216.343,212.547c-0.686-0.658-1.475-1.195-2.321-1.644c0.14-0.144,0.273-0.292,0.415-0.435     C215.078,211.154,215.714,211.845,216.343,212.547z M209.234,217.244c3.597,0,3.596,5.442,0,5.442h-4.263     c1.109-1.868,2.314-3.686,3.623-5.442H209.234z M220.137,205.374c5.967-4.728,12.594-8.217,19.541-10.473     c14.288,16.4,26.75,37.363,26.75,60.728c0,22.706-11.752,43.153-25.511,59.34c-7.147-2.154-13.849-5.588-19.844-10.167     c12.845-14.127,23.796-31.518,23.796-49.173C244.869,237.711,233.604,219.906,220.137,205.374z M303.708,210.178     c24.534,24.535,24.512,64.478-0.052,89.042c-14.495,14.522-34.622,20.805-54.571,17.611     c13.634-16.853,24.921-37.83,24.921-61.202c0-24.12-12.037-45.667-26.266-62.777     C267.433,189.224,288.522,194.991,303.708,210.178z"></path></g></g></g><g id="SvgjsG1038"></g></svg><style>@media (prefers-color-scheme: light) { :root { filter: none; } }
@media (prefers-color-scheme: dark) { :root { filter: none; } }
</style></svg>